<svg width="1440" height="1024" viewBox="0 0 1440 1024" fill="none" xmlns="http://www.w3.org/2000/svg">
<g clip-path="url(#clip0_200_4806)">
<rect width="1440" height="1024" fill="#090A0B"/>
<path d="M1102.71 718.988C994.083 756.921 887.402 782.487 802.759 793.168C760.429 798.51 723.674 800.12 694.975 797.716C666.199 795.306 645.919 788.9 635.976 778.484C626.033 768.068 627 754.243 637.937 737.965C648.845 721.731 669.528 703.285 698.342 683.784C755.957 644.79 845.905 601.696 954.537 563.763C1063.17 525.83 1169.85 500.263 1254.49 489.583C1296.82 484.241 1333.58 482.631 1362.28 485.034C1391.05 487.444 1411.33 493.851 1421.28 504.266C1431.22 514.682 1430.25 528.508 1419.32 544.785C1408.41 561.019 1387.72 579.465 1358.91 598.966C1301.3 637.96 1211.35 681.055 1102.71 718.988Z" stroke="#1D1D1D" stroke-width="2"/>
<path d="M1085.61 789.501C1001.84 818.751 919.588 838.462 854.337 846.695C821.704 850.813 793.386 852.052 771.291 850.202C749.119 848.345 733.609 843.416 726.028 835.475C718.447 827.534 719.145 816.945 727.572 804.403C735.97 791.905 751.903 777.692 774.116 762.658C818.531 732.598 887.882 699.371 971.647 670.121C1055.41 640.871 1137.66 621.16 1202.92 612.927C1235.55 608.809 1263.87 607.57 1285.96 609.42C1308.13 611.277 1323.64 616.206 1331.22 624.147C1338.81 632.089 1338.11 642.677 1329.68 655.219C1321.28 667.717 1305.35 681.93 1283.14 696.964C1238.72 727.024 1169.37 760.251 1085.61 789.501Z" stroke="#1D1D1D" stroke-width="2"/>
<path d="M431.96 101.628C343.044 152.964 255.733 187.558 186.47 202.009C151.834 209.235 121.768 211.412 98.2946 208.162C74.8054 204.909 58.1018 196.254 49.8706 181.997C41.6393 167.74 42.4957 148.947 51.4236 126.979C60.3453 105.025 77.2635 80.0756 100.84 53.6926C147.986 0.93509 221.601 -57.3814 310.517 -108.717C399.433 -160.053 486.744 -194.647 556.006 -209.098C590.643 -216.324 620.709 -218.501 644.182 -215.251C667.672 -211.998 684.375 -203.343 692.606 -189.086C700.838 -174.829 699.981 -156.036 691.053 -134.068C682.132 -112.114 665.213 -87.1647 641.637 -60.7817C594.491 -8.02413 520.876 50.2923 431.96 101.628Z" stroke="#1D1D1D" stroke-width="2"/>
<path d="M417.953 197.077C349.395 236.659 282.083 263.327 228.697 274.465C201.999 280.036 178.84 281.71 160.774 279.208C142.691 276.704 129.893 270.049 123.596 259.142C117.298 248.235 117.934 233.824 124.807 216.912C131.674 200.015 144.703 180.796 162.876 160.459C199.215 119.795 255.966 74.8355 324.524 35.2537C393.082 -4.32797 460.393 -30.9962 513.779 -42.1345C540.478 -47.7048 563.636 -49.3788 581.703 -46.8771C599.786 -44.3732 612.584 -37.7184 618.881 -26.8112C625.178 -15.904 624.542 -1.4931 617.67 15.4189C610.803 32.316 597.774 51.5349 579.6 71.8713C543.261 112.536 486.51 157.495 417.953 197.077Z" stroke="#1D1D1D" stroke-width="2"/>
</g>
<defs>
<clipPath id="clip0_200_4806">
<rect width="1440" height="1024" fill="white"/>
</clipPath>
</defs>
</svg>
