<svg width="20" height="20" viewBox="0 0 20 20" fill="none" xmlns="http://www.w3.org/2000/svg">
<path d="M13.6929 10.7093C14.6727 9.93842 15.3879 8.8813 15.7389 7.68501C16.09 6.48872 16.0594 5.21276 15.6515 4.03464C15.2436 2.85652 14.4787 1.83483 13.4631 1.11171C12.4475 0.388591 11.2317 0 9.98499 0C8.73826 0 7.52253 0.388591 6.50693 1.11171C5.49133 1.83483 4.72637 2.85652 4.31847 4.03464C3.91058 5.21276 3.88003 6.48872 4.23107 7.68501C4.58212 8.8813 5.2973 9.93842 6.27713 10.7093C4.59818 11.382 3.13323 12.4976 2.03847 13.9374C0.943705 15.3771 0.260164 17.0869 0.0607159 18.8846C0.0462788 19.0159 0.0578341 19.1487 0.0947217 19.2754C0.131609 19.4022 0.193107 19.5205 0.275703 19.6235C0.442515 19.8316 0.685139 19.9648 0.950203 19.994C1.21527 20.0231 1.48106 19.9458 1.6891 19.779C1.89715 19.6122 2.03041 19.3695 2.05956 19.1045C2.27902 17.1508 3.21059 15.3465 4.67627 14.0362C6.14196 12.7259 8.03901 12.0016 10.005 12.0016C11.971 12.0016 13.868 12.7259 15.3337 14.0362C16.7994 15.3465 17.7309 17.1508 17.9504 19.1045C17.9776 19.3501 18.0948 19.5769 18.2793 19.7411C18.4639 19.9054 18.7028 19.9955 18.9498 19.994H19.0598C19.3217 19.9638 19.5612 19.8314 19.7259 19.6254C19.8907 19.4195 19.9674 19.1568 19.9393 18.8946C19.7389 17.0918 19.0516 15.3776 17.9512 13.9357C16.8509 12.4937 15.3788 11.3784 13.6929 10.7093V10.7093ZM9.98499 9.99973C9.19432 9.99973 8.42141 9.76527 7.76399 9.326C7.10658 8.88672 6.59418 8.26237 6.2916 7.53189C5.98903 6.8014 5.90986 5.9976 6.06411 5.22212C6.21836 4.44665 6.59911 3.73433 7.1582 3.17524C7.71728 2.61615 8.42961 2.23541 9.20508 2.08115C9.98056 1.9269 10.7844 2.00607 11.5148 2.30865C12.2453 2.61122 12.8697 3.12362 13.309 3.78103C13.7482 4.43845 13.9827 5.21137 13.9827 6.00204C13.9827 7.06229 13.5615 8.07912 12.8118 8.82883C12.0621 9.57855 11.0452 9.99973 9.98499 9.99973Z" fill="#4A4A4A"/>
</svg>
